<svg width="22" height="16" viewBox="0 0 22 16" fill="none" xmlns="http://www.w3.org/2000/svg">
<rect x="15" y="9" width="7" height="7" rx="3.5" fill="white"/>
<path d="M0.000150626 3.08582C-0.00607816 2.47776 0.180785 1.86194 0.577559 1.32321C1.60219 -0.0677274 3.63776 -0.41815 5.12426 0.540547L11.0002 4.33004L16.8758 0.540547C18.3623 -0.41815 20.3979 -0.0677274 21.4225 1.32321C22.4468 2.71416 22.0724 4.6189 20.586 5.57759L12.8731 10.5519C12.3005 10.9211 11.6467 11.0962 11.0002 11.0923C10.3536 11.0962 9.69961 10.9211 9.12688 10.5519L6.53788 8.88217V12.9413C6.53788 14.6305 5.07442 16 3.26902 16C1.4636 16 0.000150626 14.6305 0.000150626 12.9413V3.09345C0.000150626 3.0909 0.000150626 3.08836 0.000150626 3.08582Z" fill="url(#paint0_linear)"/>
<defs>
<linearGradient id="paint0_linear" x1="-1.20742" y1="-1.75625" x2="-1.20742" y2="16" gradientUnits="userSpaceOnUse">
<stop stop-color="#FFB199"/>
<stop offset="1" stop-color="#FF1447"/>
</linearGradient>
</defs>
</svg>
